<?xml version="1.0" encoding="UTF-8"?> <svg xmlns="http://www.w3.org/2000/svg" width="388" height="474" viewBox="0 0 388 474" fill="none"><path d="M142.082 468.597H97.8778C97.8778 468.597 97.7042 458.856 97.4042 445.675C96.8833 423.248 94.7362 382.071 91.8472 334.491C90.0632 305.047 126.184 303.838 125.774 336.535C124.937 401.11 124.195 445.675 124.195 445.675L144.292 461.359C144.937 461.852 145.419 462.555 145.667 463.365C145.915 464.175 145.915 465.049 145.667 465.86C145.42 466.67 144.938 467.373 144.293 467.866C143.647 468.358 142.872 468.615 142.082 468.597Z" fill="black"></path><path d="M127.971 341.765C127.971 341.765 127.972 341.765 127.972 341.765C127.967 341.746 127.963 341.728 127.962 341.719C127.96 341.709 127.958 341.693 127.957 341.685C127.957 341.684 127.957 341.682 127.957 341.681C127.959 341.708 127.964 341.736 127.971 341.765ZM111.984 341.459C102.832 341.321 91.6839 340.871 83.4786 339.892L83.5315 338.738C83.5799 337.684 83.6511 336.137 83.7423 334.168C83.9248 330.229 84.1875 324.599 84.508 317.836C85.1491 304.311 86.0218 286.254 86.9483 268.126C87.8748 249.997 88.8549 231.8 89.7109 217.994C90.139 211.09 90.5358 205.288 90.8792 201.142C91.051 199.068 91.209 197.413 91.3503 196.244C91.4211 195.659 91.4869 195.203 91.5469 194.88C91.577 194.717 91.6042 194.597 91.6275 194.514C91.6357 194.485 91.6423 194.465 91.6467 194.453C91.6961 194.405 91.8305 194.308 92.1141 194.178C92.4223 194.036 92.8425 193.884 93.367 193.725C94.414 193.408 95.8314 193.081 97.5003 192.769C100.836 192.147 105.136 191.596 109.406 191.322C113.68 191.049 117.895 191.055 121.068 191.537C122.659 191.778 123.951 192.133 124.853 192.608C125.755 193.083 126.178 193.626 126.238 194.22C126.405 195.856 126.587 205.836 126.766 219.951C126.946 234.045 127.124 252.22 127.285 270.204C127.387 281.523 127.483 292.766 127.569 302.869C127.619 308.817 127.666 314.371 127.71 319.311C127.768 325.977 127.819 331.527 127.86 335.429C127.881 337.379 127.9 338.918 127.916 339.978C127.924 340.508 127.931 340.919 127.938 341.203C127.939 341.225 127.939 341.245 127.94 341.265C127.757 341.287 127.509 341.308 127.197 341.328C126.396 341.381 125.216 341.425 123.737 341.456C120.779 341.518 116.644 341.529 111.984 341.459Z" fill="#292929" stroke="black"></path><path d="M142.08 468.597H97.8764C97.8764 468.597 97.7028 458.856 97.4028 445.675H124.241L144.29 461.359C144.936 461.852 145.418 462.555 145.666 463.365C145.913 464.175 145.913 465.049 145.666 465.86C145.419 466.67 144.937 467.373 144.291 467.866C143.646 468.358 142.871 468.615 142.08 468.597Z" fill="#7915E7"></path><path d="M33.7857 442.934C47.994 413.149 60.9078 383.995 72.5113 360.597C75.8329 353.002 78.6142 345.146 80.8311 337.097C81.5889 333.214 83.4517 316.832 68.8803 314.175C54.3088 311.519 49.699 320.987 45.3418 334.73C43.3211 341.081 25.2449 394.962 13.0415 424.593L33.7857 442.934Z" fill="black"></path><path d="M34.1947 472.871L0 442.627C0 442.627 5.58862 434.981 13.1033 424.576L33.7843 442.934L40.0991 468.767C40.2973 469.58 40.252 470.44 39.9696 471.224C39.6873 472.007 39.1825 472.675 38.5273 473.13C37.8722 473.585 37.1003 473.806 36.3221 473.759C35.5439 473.713 34.7993 473.402 34.1947 472.871Z" fill="#7915E7"></path><path d="M32.6131 333.811C32.3028 333.598 32.0673 333.429 31.9084 333.312C38.1158 303.603 42.7101 270.44 45.755 244.678C47.2829 231.75 48.4209 220.684 49.177 212.849C49.555 208.932 49.8376 205.822 50.0257 203.692C50.1197 202.627 50.1901 201.806 50.237 201.252C50.2605 200.975 50.2781 200.764 50.2898 200.623L50.2986 200.517C55.2395 191.631 61.5521 186.876 68.2372 184.733C74.96 182.577 82.1103 183.047 88.7013 184.699C95.2905 186.35 101.289 189.175 105.684 191.69C107.88 192.947 109.671 194.124 110.929 195.033C111.559 195.487 112.051 195.872 112.393 196.164C112.564 196.31 112.692 196.429 112.779 196.517C112.819 196.559 112.847 196.59 112.864 196.611C112.869 196.632 112.878 196.673 112.89 196.738C112.908 196.84 112.927 196.978 112.946 197.151C112.985 197.498 113.023 197.967 113.058 198.546C113.13 199.702 113.191 201.275 113.231 203.134C113.313 206.85 113.312 211.695 113.148 216.598C112.985 221.503 112.659 226.455 112.093 230.392C111.81 232.362 111.468 234.063 111.063 235.37C110.86 236.024 110.645 236.568 110.42 236.994C110.191 237.424 109.968 237.704 109.763 237.863C107.368 239.71 105.789 242.46 104.358 247.234C102.929 252.002 101.626 258.87 99.8352 269.029C99.1727 272.787 98.3222 277.636 97.3713 283.056C95.7499 292.298 93.8369 303.202 92.068 313.198C90.665 321.127 89.3529 328.484 88.3492 333.986C87.8473 336.737 87.4228 339.023 87.1026 340.684C86.9425 341.515 86.8089 342.188 86.7049 342.684C86.6495 342.948 86.6042 343.154 86.569 343.304C69.58 346.416 55.8741 343.886 46.4044 340.571C41.6397 338.903 37.9469 337.037 35.4485 335.589C34.1994 334.866 33.2491 334.247 32.6131 333.811Z" fill="#292929" stroke="black"></path><path d="M86.9707 343.857C87.6495 341.814 96.7429 289.568 100.327 269.235C103.91 248.902 105.52 241.886 110.067 238.378" stroke="black" stroke-width="0.75" stroke-linecap="round" stroke-linejoin="round"></path><path d="M167.039 111.793L167.189 111.656L167.201 111.453C167.398 108.138 167.755 104.687 168.195 101.787C168.638 98.863 169.156 96.5659 169.65 95.5083C170.159 94.4175 171.744 91.8158 173.491 89.3649C174.362 88.1433 175.263 86.9731 176.079 86.0576C176.487 85.5997 176.868 85.2122 177.209 84.9158C177.556 84.6135 177.833 84.4312 178.033 84.3517C178.226 84.2749 178.36 84.2794 178.456 84.3091C178.554 84.3396 178.666 84.4139 178.78 84.5734C179.018 84.9084 179.201 85.5359 179.217 86.4397C179.248 88.2235 178.626 90.8234 177.024 93.5078L176.953 93.6262V93.7641V95.2457V96.6783L177.845 95.5568C180.462 92.2632 182.851 88.7655 184.989 85.0923L184.993 85.086L184.997 85.0796C186.298 82.6867 187.509 81.0497 188.536 80.1846C189.05 79.7517 189.477 79.5471 189.811 79.4998C190.116 79.4567 190.381 79.5379 190.634 79.784C190.636 79.7857 190.667 79.8194 190.697 79.9323C190.726 80.0427 190.745 80.1985 190.746 80.4052C190.748 80.8192 190.678 81.3689 190.544 82.0266C190.276 83.3374 189.768 84.9928 189.166 86.6776C188.565 88.3594 187.874 90.0549 187.246 91.4419C186.609 92.8491 186.059 93.8854 185.742 94.2907L185.391 94.7402L185.882 95.0295L186.924 95.6426L187.312 95.8705L187.58 95.5094L187.178 95.2116C187.58 95.5094 187.58 95.5094 187.58 95.5093L187.58 95.5089L187.581 95.5072L187.586 95.5005L187.606 95.4738L187.684 95.3693C187.752 95.2777 187.852 95.1431 187.98 94.9713C188.236 94.6278 188.605 94.1357 189.052 93.5416C189.946 92.3533 191.155 90.7576 192.416 89.1273C193.678 87.4962 194.989 85.8337 196.088 84.5104C196.637 83.8484 197.13 83.2752 197.536 82.8348C197.902 82.4365 198.171 82.1763 198.334 82.049C198.879 81.9183 199.063 82.0416 199.132 82.1213C199.248 82.2547 199.345 82.5801 199.278 83.2257C199.147 84.4753 198.464 86.3647 197.525 88.469C196.101 91.6593 194.166 95.1794 192.942 97.4075C192.559 98.1036 192.246 98.6736 192.039 99.068L192.891 99.5881L192.786 99.5145C192.891 99.5881 192.891 99.588 192.891 99.588L192.891 99.5875L192.892 99.5857L192.898 99.5781L192.919 99.5479L193.003 99.4298C193.076 99.3264 193.184 99.1746 193.322 98.9819C193.598 98.5966 193.993 98.0477 194.471 97.3942C195.426 96.0868 196.71 94.3628 198.025 92.6927C199.344 91.0189 200.682 89.4136 201.749 88.3354C202.288 87.7909 202.73 87.409 203.05 87.2138C203.118 87.1725 203.174 87.1432 203.22 87.1234L203.242 87.1601L203.431 87.2126C203.828 87.3235 204.027 87.5506 204.116 87.9043C204.218 88.3029 204.179 88.8787 203.982 89.6222C203.591 91.0988 202.642 92.9911 201.523 94.8858C200.411 96.7704 199.153 98.6191 198.171 99.9989C197.681 100.688 197.26 101.259 196.962 101.657C196.814 101.857 196.696 102.012 196.615 102.118C196.575 102.171 196.544 102.212 196.523 102.239L196.499 102.269L196.493 102.277L196.492 102.279L196.492 102.279L196.887 102.585L196.492 102.279L197.27 102.907L197.27 102.906L197.271 102.905L197.275 102.9L197.292 102.88L197.359 102.801C197.419 102.732 197.506 102.63 197.619 102.5C197.844 102.242 198.168 101.874 198.564 101.441C199.357 100.573 200.433 99.4442 201.572 98.393C202.716 97.3356 203.898 96.3821 204.903 95.8414C205.408 95.5698 205.829 95.4241 206.156 95.3977C206.462 95.3729 206.651 95.4519 206.788 95.6089C206.811 95.6349 206.858 95.7138 206.857 95.92C206.856 96.1252 206.806 96.4056 206.691 96.7668C206.461 97.4877 206.005 98.4313 205.353 99.5545C204.052 101.794 202.025 104.658 199.655 107.718C194.917 113.836 188.854 120.68 184.62 124.79L184.573 124.836L184.539 124.892L184.968 125.149C184.539 124.892 184.539 124.892 184.539 124.892L184.538 124.893L184.536 124.897L184.528 124.91L184.495 124.965L184.366 125.179C184.253 125.368 184.085 125.646 183.869 126.004C183.437 126.719 182.81 127.753 182.033 129.026C180.477 131.574 178.318 135.08 175.903 138.917C171.069 146.597 165.224 155.577 161.145 160.843C155.834 167.693 148.803 172.944 142.256 175.392C135.684 177.849 129.789 177.43 126.474 173.286C124.385 170.637 123.574 167.594 124.09 163.982C124.61 160.347 126.477 156.121 129.788 151.153C136.41 141.218 148.702 128.473 167.039 111.793Z" fill="#CCCCCC" stroke="black"></path><path d="M107.324 66.5083L107.324 66.5083L107.324 66.5141C107.285 71.1783 107.496 75.841 107.957 80.4789C108.306 84.2348 108.765 87.9215 109.271 91.3685L109.271 91.3697C109.844 95.2061 109.877 98.94 108.075 101.923C106.288 104.88 102.61 107.233 95.4348 108.101C88.4171 108.925 83.8563 105.609 81.1625 101.167C78.448 96.6904 77.6538 91.0972 78.2272 87.5264C79.0667 82.298 79.2521 75.666 79.4706 67.8474C79.5618 64.582 79.6588 61.1097 79.8117 57.4461C80.3677 45.0271 86.4601 38.6348 92.5284 38.5089C98.5939 38.3831 105.245 44.5058 106.932 58.3862C107.247 61.0796 107.377 63.7943 107.324 66.5083Z" fill="#C0C0C0" stroke="black"></path><path d="M132.093 158.524L131.932 158.664L131.921 158.876L132.086 158.885C131.921 158.876 131.921 158.876 131.921 158.876L131.921 158.877L131.921 158.88L131.92 158.891L131.918 158.937L131.909 159.114C131.901 159.27 131.89 159.498 131.875 159.789C131.846 160.372 131.806 161.207 131.76 162.216C131.667 164.234 131.551 166.95 131.457 169.742C131.363 172.532 131.292 175.401 131.288 177.724C131.286 178.885 131.301 179.915 131.339 180.732C131.377 181.527 131.438 182.179 131.547 182.545C131.889 183.694 132.702 187.598 132.149 191.444C131.873 193.362 131.263 195.232 130.116 196.739C128.978 198.235 127.29 199.403 124.793 199.895C122.225 200.401 116.497 200.834 109.249 201.15C102.018 201.466 93.3131 201.665 84.8179 201.712C76.322 201.759 68.0417 201.653 61.6571 201.361C58.4636 201.215 55.7527 201.023 53.7292 200.78C52.7166 200.659 51.8861 200.526 51.2576 200.384C50.6188 200.238 50.2637 200.098 50.1196 199.995C48.1533 198.291 46.6951 195.992 45.9356 193.385C45.1756 190.776 45.1511 187.982 45.865 185.359C46.793 182.617 46.8849 179.187 46.6331 175.87C46.3801 172.537 45.7751 169.264 45.2766 166.823L45.2762 166.821C45.1396 166.166 44.8899 164.269 44.5411 161.413C43.1209 149.498 40.4243 121.305 40.377 102.483C40.377 97.978 40.519 94.0232 40.8613 90.9575C41.0325 89.4241 41.2525 88.1253 41.5257 87.0969C41.8023 86.0558 42.1202 85.3442 42.456 84.9397L42.4565 84.9391C44.7914 82.1183 46.954 80.3966 49.0266 79.3466C51.0915 78.3005 53.0955 77.9065 55.1425 77.7807H55.1439H55.1495H55.155H55.1606H55.1661H55.1717H55.1772H55.1828H55.1883H55.1939H55.1994H55.205H55.2105H55.2161H55.2217H55.2272H55.2328H55.2383H55.2439H55.2494H55.255H55.2606H55.2661H55.2717H55.2772H55.2828H55.2883H55.2939H55.2995H55.305H55.3106H55.3162H55.3217H55.3273H55.3328H55.3384H55.344H55.3495H55.3551H55.3607H55.3662H55.3718H55.3774H55.3829H55.3885H55.3941H55.3996H55.4052H55.4108H55.4163H55.4219H55.4275H55.433H55.4386H55.4442H55.4497H55.4553H55.4609H55.4664H55.472H55.4776H55.4832H55.4887H55.4943H55.4999H55.5055H55.511H55.5166H55.5222H55.5277H55.5333H55.5389H55.5445H55.55H55.5556H55.5612H55.5668H55.5724H55.5779H55.5835H55.5891H55.5947H55.6002H55.6058H55.6114H55.617H55.6226H55.6281H55.6337H55.6393H55.6449H55.6505H55.656H55.6616H55.6672H55.6728H55.6784H55.6839H55.6895H55.6951H55.7007H55.7063H55.7119H55.7174H55.723H55.7286H55.7342H55.7398H55.7454H55.751H55.7565H55.7621H55.7677H55.7733H55.7789H55.7845H55.7901H55.7957H55.8012H55.8068H55.8124H55.818H55.8236H55.8292H55.8348H55.8404H55.846H55.8516H55.8571H55.8627H55.8683H55.8739H55.8795H55.8851H55.8907H55.8963H55.9019H55.9075H55.9131H55.9187H55.9243H55.9299H55.9355H55.941H55.9466H55.9522H55.9578H55.9634H55.969H55.9746H55.9802H55.9858H55.9914H55.997H56.0026H56.0082H56.0138H56.0194H56.025H56.0306H56.0362H56.0418H56.0474H56.053H56.0586H56.0642H56.0698H56.0754H56.081H56.0866H56.0922H56.0978H56.1034H56.109H56.1146H56.1202H56.1258H56.1314H56.137H56.1426H56.1482H56.1539H56.1595H56.1651H56.1707H56.1763H56.1819H56.1875H56.1931H56.1987H56.2043H56.2099H56.2155H56.2211H56.2267H56.2323H56.2379H56.2436H56.2492H56.2548H56.2604H56.266H56.2716H56.2772H56.2828H56.2884H56.294H56.2996H56.3053H56.3109H56.3165H56.3221H56.3277H56.3333H56.3389H56.3445H56.3501H56.3558H56.3614H56.367H56.3726H56.3782H56.3838H56.3894H56.3951H56.4007H56.4063H56.4119H56.4175H56.4231H56.4287H56.4344H56.44H56.4456H56.4512H56.4568H56.4624H56.4681H56.4737H56.4793H56.4849H56.4905H56.4961H56.5018H56.5074H56.513H56.5186H56.5242H56.5298H56.5355H56.5411H56.5467H56.5523H56.5579H56.5636H56.5692H56.5748H56.5804H56.586H56.5917H56.5973H56.6029H56.6085H56.6141H56.6198H56.6254H56.631H56.6366H56.6423H56.6479H56.6535H56.6591H56.6647H56.6704H56.676H56.6816H56.6872H56.6929H56.6985H56.7041H56.7097H56.7154H56.721H56.7266H56.7322H56.7379H56.7435H56.7491H56.7547H56.7604H56.766H56.7716H56.7772H56.7829H56.7885H56.7941H56.7997H56.8054H56.811H56.8166H56.8222H56.8279H56.8335H56.8391H56.8448H56.8504H56.856H56.8616H56.8673H56.8729H56.8785H56.8842H56.8898H56.8954H56.901H56.9067H56.9123H56.9179H56.9236H56.9292H56.9348H56.9404H56.9461H56.9517H56.9573H56.963H56.9686H56.9742H56.9799H56.9855H56.9911H56.9968H57.0024H57.008H57.0136H57.0193H57.0249H57.0305H57.0362H57.0418H57.0474H57.0531H57.0587H57.0643H57.07H57.0756H57.0812H57.0869H57.0925H57.0981H57.1038H57.1094H57.115H57.1207H57.1263H57.1319H57.1376H57.1432H57.1488H57.1545H57.1601H57.1658H57.1714H57.177H57.1827H57.1883H57.1939H57.1996H57.2052H57.2108H57.2165H57.2221H57.2277H57.2334H57.239H57.2446H57.2503H57.2559H57.2616H57.2672H57.2728H57.2785H57.2841H57.2897H57.2954H57.301H57.3067H57.3123H57.3179H57.3236H57.3292H57.3348H57.3405H57.3461H57.3518H57.3574H57.363H57.3687H57.3743H57.3799H57.3856H57.3912H57.3969H57.4025H57.4081H57.4138H57.4194H57.4251H57.4307H57.4363H57.442H57.4476H57.4532H57.4589H57.4645H57.4702H57.4758H57.4814H57.4871H57.4927H57.4984H57.504H57.5096H57.5153H57.5209H57.5266H57.5322H57.5378H57.5435H57.5491H57.5548H57.5604H57.566H57.5717H57.5773H57.583H57.5886H57.5943H57.5999H57.6055H57.6112H57.6168H57.6225H57.6281H57.6337H57.6394H57.645H57.6507H57.6563H57.6619H57.6676H57.6732H57.6789H57.6845H57.6902H57.6958H57.7014H57.7071H57.7127H57.7184H57.724H57.7296H57.7353H57.7409H57.7466H57.7522H57.7579H57.7635H57.7691H57.7748H57.7804H57.7861H57.7917H57.7973H57.803H57.8086H57.8143H57.8199H57.8256H57.8312H57.8368H57.8425H57.8481H57.8538H57.8594H57.8651H57.8707H57.8763H57.882H57.8876H57.8933H57.8989H57.9046H57.9102H57.9158H57.9215H57.9271H57.9328H57.9384H57.944H57.9497H57.9553H57.961H57.9666H57.9723H57.9779H57.9835H57.9892H57.9948H57.9956C60.5898 77.8317 64.7178 78.1535 68.7068 78.4794C69.1765 78.5178 69.6444 78.5562 70.1075 78.5943C73.365 78.8619 76.3903 79.1105 78.1912 79.1827C79.8968 83.0301 82.4846 86.3522 85.7161 88.8319C89.0275 91.3728 92.8998 92.9405 96.9508 93.376C100.738 93.8764 103.697 92.9503 106.014 91.0085C108.251 89.1344 109.85 86.3474 111.052 83.1044C111.086 83.0986 111.124 83.0924 111.163 83.0858C111.419 83.0437 111.792 82.9853 112.26 82.921C113.198 82.7925 114.515 82.6407 116.035 82.548C119.084 82.3618 122.898 82.4169 126.074 83.3457C131.299 84.9118 135.275 88.8381 137.979 94.8886L137.98 94.8902C138.581 96.2235 139.101 97.5979 139.537 99.0047L139.536 99.0047L139.539 99.0135C140.931 103.231 143.258 114.707 145.192 125.173C146.158 130.396 147.023 135.352 147.622 139.002C147.921 140.827 148.154 142.323 148.299 143.36C148.372 143.88 148.422 144.279 148.448 144.545C148.451 144.579 148.453 144.609 148.456 144.637C148.439 144.649 148.421 144.662 148.404 144.675C148.255 144.783 148.055 144.939 147.814 145.131C147.331 145.517 146.665 146.066 145.88 146.722C144.309 148.035 142.254 149.784 140.212 151.532C138.17 153.28 136.14 155.028 134.621 156.339C133.862 156.995 133.23 157.541 132.788 157.923L132.275 158.367L132.14 158.484L132.105 158.514L132.096 158.522L132.094 158.524L132.093 158.524C132.093 158.524 132.093 158.524 132.102 158.534C132.122 158.557 132.19 158.636 132.421 158.902L132.093 158.524ZM148.938 144.421C148.888 144.422 148.845 144.431 148.815 144.439C148.852 144.428 148.893 144.422 148.938 144.421Z" fill="#7915E7" stroke="black"></path><path d="M132.433 158.902C132.433 158.902 134.422 120.143 133.601 112.668" stroke="black" stroke-width="0.75" stroke-linecap="round" stroke-linejoin="round"></path><path d="M40.4445 176.423C37.7959 169.593 36.5124 161.953 35.5281 155.885L68.4434 152.323C73.74 167.265 74.106 178.906 71.1853 185.955C69.7189 189.495 67.4362 191.854 64.5478 192.939C61.6535 194.025 58.0716 193.861 53.9564 192.191L53.954 192.19C47.307 189.532 43.1709 183.454 40.4445 176.423Z" fill="#CCCCCC" stroke="black"></path><path d="M72.7535 126.938L72.7535 126.94C72.7922 135.767 72.3764 144.589 71.508 153.366C66.9149 155.085 62.2301 156.504 57.4789 157.615L57.4789 157.615L57.466 157.618C53.2139 158.732 48.6628 159.862 44.6327 160.863L43.994 161.021C43.9934 161.021 43.9927 161.022 43.9921 161.022C40.7976 161.787 37.9739 162.447 35.9486 162.915C34.9358 163.149 34.1228 163.335 33.563 163.463C33.4357 163.492 33.3215 163.518 33.2211 163.54C31.0625 149.184 29.7937 134.687 29.4233 120.148L29.4233 120.146C29.3199 116.511 29.3933 112.872 29.6432 109.246C30.2957 100.183 32.2343 92.5861 35.9097 87.1238C39.5675 81.6876 44.9678 78.3302 52.6566 77.7622L52.6567 77.7624L52.6698 77.7611C53.4912 77.6786 54.3179 77.6784 55.1394 77.7607C60.1241 78.3389 63.7772 81.8658 66.4348 87.2635C69.0936 92.6635 70.7071 99.848 71.636 107.532C72.3738 113.97 72.747 120.451 72.7535 126.938Z" fill="#7915E7" stroke="black"></path><path d="M71.9075 153.725C71.9075 153.725 63.6035 123.072 62.9089 120.654C62.9089 120.382 62.7668 120.109 62.6878 119.871C62.0621 117.757 60.8768 115.886 59.2778 114.49" stroke="black" stroke-width="0.75" stroke-linecap="round" stroke-linejoin="round"></path><path d="M75.5709 44.5845C71.2768 32.664 67.0301 13.9317 78.2705 4.76998C92.4788 -6.75886 103.53 6.2345 103.53 6.2345C103.53 6.2345 114.328 29.3773 97.3886 41.3659C80.4491 53.3545 75.5709 44.5845 75.5709 44.5845Z" fill="black"></path><path d="M79.7498 57.1996L79.7497 57.1994L79.7496 57.1993L79.6194 57.0194L79.3985 56.9955C75.8172 56.608 73.4556 55.1426 72.0715 53.3092C70.6816 51.4681 70.2459 49.215 70.5922 47.1979C70.9392 45.1769 72.0611 43.4356 73.7381 42.5671C75.3993 41.7068 77.7066 41.6516 80.5415 43.201L80.5415 43.201L80.5463 43.2036C80.9064 43.3954 81.2717 43.3098 81.5514 43.1385C81.8163 42.9763 82.0539 42.7136 82.2646 42.4183C82.6914 41.82 83.1136 40.9351 83.4901 39.9173C84.2451 37.8756 84.8625 35.1703 84.9436 32.8345C84.9629 32.2786 84.9852 31.7652 85.0054 31.299C85.0257 30.8326 85.0438 30.4135 85.0549 30.0469C85.0775 29.301 85.0746 28.6845 85.0002 28.1541C84.9242 27.6124 84.7726 27.1505 84.4947 26.7147C84.2215 26.2862 83.8428 25.9094 83.3528 25.5141C83.2442 25.4265 83.1356 25.3398 83.0276 25.2536C82.1645 24.5647 81.3404 23.907 80.8473 23.0365C80.3268 22.1174 80.153 20.9016 80.9995 19.0434C81.8534 17.169 83.283 15.7236 84.7737 14.8409C86.2846 13.9461 87.7665 13.6788 88.74 13.9981C89.9917 14.4086 92.4086 14.6594 94.7884 14.4424C95.9849 14.3333 97.1964 14.1041 98.2645 13.7038C99.3293 13.3049 100.286 12.7228 100.928 11.8858L100.934 11.8782L100.939 11.8704C101.658 10.8538 102.156 9.67933 102.399 8.43306C102.555 7.62799 102.603 6.80521 102.542 5.98987C102.688 6.12038 102.847 6.26749 103.02 6.43185C103.948 7.31412 105.261 8.6936 106.783 10.6692C109.826 14.6195 113.708 20.9574 117.013 30.4765C117.296 31.3069 117.579 32.1719 117.831 32.9536L117.832 32.957C119.106 36.8131 120.087 40.7748 120.766 44.8028C121.873 51.4989 121.731 57.5582 119.716 62.1647C117.719 66.7297 113.856 69.9289 107.342 70.8937C99.3752 72.0415 92.4919 68.6511 87.5656 64.9231C85.1063 63.0621 83.1488 61.127 81.8064 59.6571C81.1355 58.9226 80.6192 58.3052 80.2716 57.8728C80.0978 57.6566 79.9662 57.4868 79.8786 57.3717C79.8348 57.3141 79.802 57.2703 79.7805 57.2412L79.7566 57.2088L79.751 57.2012L79.7498 57.1996Z" fill="#C0C0C0" stroke="black"></path><path d="M97.5435 34.3158C97.5435 34.724 97.656 35.1231 97.8666 35.4623C98.0772 35.8015 98.3765 36.0656 98.7264 36.221C99.0764 36.3765 99.4613 36.4163 99.8323 36.3354C100.203 36.2545 100.544 36.0565 100.81 35.7667C101.077 35.4768 101.257 35.108 101.329 34.7072C101.401 34.3064 101.361 33.8916 101.214 33.5154C101.067 33.1391 100.82 32.8185 100.503 32.5942C100.187 32.3698 99.8164 32.2519 99.438 32.2552C99.1878 32.2552 98.9402 32.3086 98.7093 32.4124C98.4785 32.5161 98.2689 32.6682 98.0928 32.8598C97.9167 33.0513 97.7774 33.2786 97.6832 33.5285C97.5889 33.7784 97.5414 34.046 97.5435 34.3158Z" fill="black"></path><path d="M108.455 30.2117C108.452 30.62 108.561 31.02 108.769 31.3611C108.977 31.7022 109.274 31.9689 109.623 32.1275C109.972 32.2861 110.356 32.3293 110.728 32.2518C111.099 32.1742 111.441 31.9793 111.71 31.6918C111.979 31.4043 112.162 31.0372 112.237 30.637C112.312 30.2369 112.275 29.8217 112.131 29.4442C111.987 29.0667 111.742 28.7438 111.428 28.5167C111.113 28.2895 110.743 28.1682 110.365 28.1682C110.115 28.1659 109.867 28.2172 109.635 28.3189C109.403 28.4205 109.193 28.5707 109.015 28.7607C108.837 28.9507 108.697 29.1767 108.6 29.4257C108.504 29.6748 108.455 29.9419 108.455 30.2117Z" fill="black"></path><path d="M89.0394 28.8148C89.8147 28.7967 98.2117 24.5745 96.0173 21.4071C93.8229 18.2396 88.2641 28.833 89.0394 28.8148Z" fill="black"></path><path d="M102.451 17.7772C101.543 20.6296 110.506 20.3444 110.623 19.1355C110.741 17.9266 103.427 14.6804 102.451 17.7772Z" fill="black"></path><path d="M103.328 28.1681C102.633 31.574 104.164 33.924 106.248 34.3157C108.98 34.8266 112.2 36.257 110.085 41.2637" stroke="black" stroke-width="0.75" stroke-linecap="round" stroke-linejoin="round"></path><path d="M99.0112 46.4066C103.305 47.9733 110.362 47.0367 110.362 47.0367C110.362 47.0367 109.352 54.1379 104.679 53.6951C100.006 53.2523 99.0112 46.4066 99.0112 46.4066Z" fill="white" stroke="black" stroke-width="0.75" stroke-linecap="round" stroke-linejoin="round"></path><path d="M133.305 138.859L132.816 138.755L132.472 140.381L133.656 139.215L133.305 138.859ZM133.305 138.859L132.816 138.755L132.816 138.755L132.816 138.753L132.817 138.747L132.823 138.722L132.843 138.624C132.861 138.537 132.886 138.409 132.918 138.245C132.982 137.917 133.07 137.448 133.167 136.881C133.361 135.747 133.591 134.23 133.737 132.687C133.883 131.139 133.94 129.593 133.801 128.391C133.731 127.789 133.614 127.304 133.454 126.958C133.294 126.611 133.119 126.461 132.959 126.408C132.453 126.241 131.974 126.333 131.466 126.672C130.939 127.025 130.406 127.629 129.858 128.431C129.116 129.517 128.411 130.863 127.683 132.252C127.327 132.932 126.965 133.623 126.591 134.299C125.897 135.552 125.062 137.376 124.162 139.34C123.631 140.501 123.077 141.712 122.516 142.883C121.768 144.444 121.011 145.927 120.292 147.09C119.932 147.672 119.575 148.184 119.227 148.59C118.886 148.988 118.521 149.322 118.135 149.497C117.931 149.59 117.563 149.678 117.12 149.768C116.655 149.863 116.044 149.972 115.309 150.094C114.24 150.273 112.896 150.483 111.337 150.728C110.751 150.819 110.134 150.916 109.49 151.018C104.769 151.761 98.5569 152.77 91.9983 154.092C85.4382 155.414 78.5417 157.048 72.4529 159.039C66.3513 161.034 61.1137 163.373 57.8301 166.082C51.6516 171.22 48.3433 176.7 47.6396 181.358C47.2886 183.681 47.5855 185.792 48.4846 187.57C49.3825 189.345 50.8971 190.819 53.0376 191.845C60.2713 195.269 66.892 195.382 73.9299 193.696C79.8084 192.288 85.9504 189.633 92.9819 186.594C94.4105 185.977 95.8758 185.343 97.383 184.701C106.265 180.918 115.793 176.288 123.104 172.601C126.759 170.757 129.859 169.151 132.044 168.005C133.137 167.433 134.001 166.975 134.592 166.661C134.887 166.504 135.114 166.383 135.267 166.301L135.441 166.208L135.485 166.184L135.496 166.178L135.497 166.177L135.498 166.177L135.498 166.177L135.499 166.176L135.5 166.176L135.509 166.171L135.545 166.151L135.684 166.075C135.807 166.008 135.987 165.91 136.219 165.783C136.683 165.529 137.351 165.163 138.172 164.711C139.812 163.807 142.059 162.561 144.484 161.195C149.34 158.46 154.886 155.256 157.716 153.345C160.543 151.436 161.951 149.97 162.572 148.916C163.115 147.994 163.024 147.459 162.86 147.18C162.803 147.182 162.718 147.191 162.602 147.215C162.288 147.279 161.849 147.422 161.308 147.633C160.232 148.052 158.839 148.706 157.408 149.417C155.981 150.126 154.53 150.884 153.341 151.507C153.238 151.562 153.136 151.615 153.037 151.667C152.004 152.209 151.189 152.637 150.841 152.792L150.275 151.991C151.096 151.127 152.445 150.123 153.952 149.016C154.071 148.929 154.191 148.842 154.311 148.753C155.743 147.703 157.32 146.548 158.813 145.287C160.432 143.919 161.932 142.444 163.025 140.875C164.076 139.365 164.733 137.793 164.78 136.162C164.632 136.034 164.409 135.951 164.064 135.942C163.619 135.93 163.036 136.046 162.329 136.287C160.919 136.768 159.163 137.696 157.319 138.797C155.502 139.882 153.629 141.117 151.956 142.22L151.897 142.259C150.221 143.363 148.731 144.345 147.735 144.878L147.218 144.023L147.499 144.437C147.218 144.023 147.218 144.023 147.218 144.023L147.219 144.022L147.221 144.021L147.231 144.014L147.269 143.988C147.303 143.965 147.353 143.93 147.419 143.885C147.551 143.794 147.743 143.66 147.987 143.488C148.475 143.144 149.166 142.648 149.98 142.041C151.609 140.827 153.723 139.175 155.673 137.417C157.632 135.65 159.389 133.809 160.34 132.215C160.817 131.416 161.058 130.732 161.064 130.183C161.069 129.674 160.874 129.249 160.365 128.9L160.358 128.895L160.351 128.89C160.331 128.875 160.265 128.84 160.094 128.848C159.924 128.855 159.694 128.905 159.4 129.009C158.814 129.218 158.066 129.613 157.201 130.154C155.476 131.234 153.375 132.84 151.331 134.511C149.29 136.18 147.32 137.904 145.859 139.21C145.128 139.864 144.526 140.412 144.106 140.798C143.896 140.99 143.732 141.142 143.62 141.245L143.493 141.363L143.461 141.393L143.453 141.401L143.451 141.403L143.451 141.403C143.45 141.403 143.45 141.403 143.109 141.038M133.305 138.859C133.656 139.215 133.656 139.215 133.656 139.215L133.657 139.214L133.659 139.212L133.668 139.203L133.706 139.166C133.739 139.133 133.788 139.085 133.853 139.022C133.982 138.896 134.172 138.712 134.415 138.479C134.901 138.012 135.597 137.348 136.44 136.564C138.126 134.995 140.395 132.945 142.729 131.014C145.069 129.079 147.453 127.282 149.374 126.205C150.341 125.663 151.148 125.328 151.753 125.228C152.353 125.129 152.596 125.276 152.716 125.485C152.907 125.816 152.966 126.283 152.851 126.91C152.738 127.535 152.462 128.266 152.053 129.074C151.237 130.686 149.939 132.512 148.556 134.242C147.175 135.968 145.725 137.578 144.619 138.759C144.066 139.349 143.6 139.83 143.273 140.164C143.109 140.331 142.98 140.461 142.892 140.549C142.848 140.593 142.814 140.626 142.792 140.649L142.766 140.674L142.76 140.68L142.758 140.682L142.758 140.682L143.109 141.038M143.109 141.038L142.758 140.682L143.45 141.403L143.109 141.038ZM162.935 147.183C162.935 147.183 162.933 147.182 162.928 147.181C162.933 147.182 162.936 147.183 162.935 147.183Z" fill="#CCCCCC" stroke="black"></path><path d="M64.6333 165.748C67.3802 160.384 73.5372 158.17 75.779 157.54" stroke="black" stroke-width="0.75" stroke-linecap="round" stroke-linejoin="round"></path><mask id="path-25-inside-1_301_500" fill="white"><path d="M179.498 389.738C180.403 389.738 181.173 389.169 181.33 388.392L190.308 342.777L203.223 277.166L206.838 258.825L197.638 258.588L196.04 269.239L184.834 344.076L178.189 388.438C178.085 389.127 178.701 389.738 179.498 389.738Z"></path></mask><path d="M179.498 389.738C180.403 389.738 181.173 389.169 181.33 388.392L190.308 342.777L203.223 277.166L206.838 258.825L197.638 258.588L196.04 269.239L184.834 344.076L178.189 388.438C178.085 389.127 178.701 389.738 179.498 389.738Z" fill="white"></path><path d="M181.33 388.392L182.312 388.585L182.31 388.592L181.33 388.392ZM190.308 342.777L189.327 342.584L189.327 342.583L190.308 342.777ZM203.223 277.166L202.242 276.973L202.242 276.973L203.223 277.166ZM206.838 258.825L206.864 257.825L208.048 257.855L207.819 259.018L206.838 258.825ZM197.638 258.588L196.649 258.44L196.78 257.565L197.663 257.588L197.638 258.588ZM196.04 269.239L195.051 269.091L195.051 269.091L196.04 269.239ZM184.834 344.076L185.823 344.224L185.823 344.224L184.834 344.076ZM178.189 388.438L179.178 388.586L179.178 388.587L178.189 388.438ZM179.498 388.738C180.018 388.738 180.304 388.421 180.351 388.193L182.31 388.592C182.041 389.917 180.788 390.738 179.498 390.738V388.738ZM180.349 388.199L189.327 342.584L191.289 342.97L182.312 388.585L180.349 388.199ZM189.327 342.583L202.242 276.973L204.205 277.359L191.289 342.97L189.327 342.583ZM202.242 276.973L205.857 258.631L207.819 259.018L204.204 277.36L202.242 276.973ZM206.812 259.824L197.612 259.588L197.663 257.588L206.864 257.825L206.812 259.824ZM198.627 258.736L197.029 269.387L195.051 269.091L196.649 258.44L198.627 258.736ZM197.029 269.387L185.823 344.224L183.845 343.928L195.051 269.091L197.029 269.387ZM185.823 344.224L179.178 388.586L177.2 388.29L183.845 343.928L185.823 344.224ZM179.178 388.587C179.178 388.59 179.178 388.59 179.179 388.593C179.18 388.598 179.188 388.614 179.21 388.637C179.257 388.683 179.354 388.738 179.498 388.738V390.738C178.256 390.738 176.982 389.737 177.2 388.289L179.178 388.587Z" fill="black" mask="url(#path-25-inside-1_301_500)"></path><mask id="path-27-inside-2_301_500" fill="white"><path d="M369.414 389.738C368.513 389.738 367.74 389.169 367.582 388.392L358.604 342.777L345.689 277.166L342.074 258.825L351.275 258.588L352.872 269.239L364.079 344.076L370.723 388.438C370.827 389.127 370.211 389.738 369.414 389.738Z"></path></mask><path d="M369.414 389.738C368.513 389.738 367.74 389.169 367.582 388.392L358.604 342.777L345.689 277.166L342.074 258.825L351.275 258.588L352.872 269.239L364.079 344.076L370.723 388.438C370.827 389.127 370.211 389.738 369.414 389.738Z" fill="white"></path><path d="M367.582 388.392L366.602 388.592L366.601 388.585L367.582 388.392ZM358.604 342.777L359.586 342.583L359.586 342.584L358.604 342.777ZM345.689 277.166L346.67 276.973L346.67 276.973L345.689 277.166ZM342.074 258.825L341.093 259.018L340.864 257.855L342.049 257.825L342.074 258.825ZM351.275 258.588L351.249 257.588L352.133 257.565L352.264 258.44L351.275 258.588ZM352.872 269.239L353.861 269.091L353.861 269.091L352.872 269.239ZM364.079 344.076L363.09 344.224L363.09 344.224L364.079 344.076ZM370.723 388.438L369.734 388.587L369.734 388.586L370.723 388.438ZM369.414 390.738C368.13 390.738 366.872 389.918 366.602 388.592L368.562 388.193C368.608 388.419 368.897 388.738 369.414 388.738V390.738ZM366.601 388.585L357.623 342.97L359.586 342.584L368.563 388.199L366.601 388.585ZM357.623 342.97L344.708 277.359L346.67 276.973L359.586 342.583L357.623 342.97ZM344.708 277.36L341.093 259.018L343.055 258.631L346.67 276.973L344.708 277.36ZM342.049 257.825L351.249 257.588L351.301 259.588L342.1 259.824L342.049 257.825ZM352.264 258.44L353.861 269.091L351.883 269.387L350.286 258.736L352.264 258.44ZM353.861 269.091L365.068 343.928L363.09 344.224L351.883 269.387L353.861 269.091ZM365.068 343.928L371.712 388.29L369.734 388.586L363.09 344.224L365.068 343.928ZM371.712 388.289C371.93 389.737 370.657 390.738 369.414 390.738V388.738C369.558 388.738 369.655 388.683 369.702 388.637C369.725 388.614 369.732 388.598 369.734 388.593C369.735 388.59 369.735 388.59 369.734 388.587L371.712 388.289Z" fill="black" mask="url(#path-27-inside-2_301_500)"></path><path d="M171.675 265.525H368.499C371.86 265.525 374.674 262.542 374.674 258.82C374.674 255.103 371.86 252.12 368.499 252.12H171.675C168.314 252.12 165.5 255.103 165.5 258.82C165.5 262.542 168.314 265.525 171.675 265.525Z" fill="white" stroke="black"></path><path d="M295.27 102.585C295.27 100.056 297.167 98.0088 299.508 98.0088C301.852 98.0088 303.75 100.056 303.75 102.585C303.75 105.11 301.852 107.157 299.508 107.157C297.167 107.157 295.27 105.11 295.27 102.585Z" fill="#0B0B36"></path><path d="M299.504 100.824C299.169 100.824 298.896 100.529 298.896 100.168V81.6561C298.896 81.2948 299.169 81 299.504 81C299.843 81 300.116 81.2948 300.116 81.6561V100.168C300.116 100.529 299.843 100.824 299.504 100.824Z" fill="#0B0B36"></path><path d="M245.949 102.585C245.949 100.056 247.847 98.0088 250.188 98.0088C252.532 98.0088 254.43 100.056 254.43 102.585C254.43 105.11 252.532 107.157 250.188 107.157C247.847 107.157 245.949 105.11 245.949 102.585Z" fill="#0B0B36"></path><path d="M181.08 198.455C180.991 199.227 181.242 200.033 181.819 200.593C182.758 201.503 184.202 201.42 185.045 200.407C185.903 199.389 188.71 196.736 191.335 196.74C192.575 196.74 193.684 197.346 194.727 198.592C198.75 203.392 193.033 210.472 192.971 210.543C192.136 211.56 192.225 213.117 193.168 214.019C194.115 214.924 195.558 214.828 196.394 213.807C199.346 210.211 203.504 201.715 198.118 195.286C196.205 193.007 193.853 191.807 191.316 191.811C189.072 191.815 186.75 192.724 184.418 194.51C182.793 195.752 181.757 196.977 181.646 197.114C181.322 197.504 181.134 197.973 181.08 198.455Z" fill="black"></path><path d="M195.707 197.367C195.707 197.795 195.849 198.222 196.134 198.563C196.746 199.298 197.797 199.36 198.479 198.696L203.795 193.538C204.476 192.874 204.53 191.74 203.918 191.005C203.306 190.27 202.255 190.212 201.57 190.872L196.258 196.034C195.892 196.387 195.707 196.877 195.707 197.367Z" fill="black"></path><path d="M201.677 195.739L201.677 195.739L201.679 195.74C202.146 196.076 202.627 196.361 203.124 196.597H203.132L203.231 196.642C206.686 198.223 210.768 197.426 213.528 194.46L213.529 194.46C219.601 187.947 227.625 183.435 237.471 180.998C237.854 180.902 238.231 180.813 238.602 180.73C242.324 179.88 245.769 179.462 248.607 179.269C252.694 178.989 256.041 175.552 256.412 171.086L256.412 171.086L256.412 171.08L256.443 170.761L256.443 170.756L256.581 169.133L256.581 169.132C256.913 165.306 254.071 162.115 250.615 162.217C246.924 162.328 242.049 162.741 236.614 163.884L236.613 163.884C232.972 164.648 229.08 165.736 225.121 167.282L225.121 167.282C216.431 170.675 207.411 176.247 199.992 185.354C197.501 188.417 198.104 193.159 201.224 195.416L201.677 195.739Z" fill="white" stroke="black"></path><mask id="path-36-inside-3_301_500" fill="white"><path d="M258.366 150.194H320.495C326.435 150.194 331.293 144.949 331.293 138.542V113.17C331.293 106.762 326.435 101.518 320.495 101.518H258.366C252.422 101.518 247.563 106.762 247.563 113.17V138.542C247.563 144.949 252.422 150.194 258.366 150.194Z"></path></mask><path d="M258.366 150.194H320.495C326.435 150.194 331.293 144.949 331.293 138.542V113.17C331.293 106.762 326.435 101.518 320.495 101.518H258.366C252.422 101.518 247.563 106.762 247.563 113.17V138.542C247.563 144.949 252.422 150.194 258.366 150.194Z" fill="white"></path><path d="M258.366 149.194H320.495V151.194H258.366V149.194ZM320.495 149.194C325.812 149.194 330.293 144.47 330.293 138.542H332.293C332.293 145.428 327.057 151.194 320.495 151.194V149.194ZM330.293 138.542V113.17H332.293V138.542H330.293ZM330.293 113.17C330.293 107.242 325.812 102.518 320.495 102.518V100.518C327.057 100.518 332.293 106.283 332.293 113.17H330.293ZM320.495 102.518H258.366V100.518H320.495V102.518ZM258.366 102.518C253.044 102.518 248.563 107.242 248.563 113.17H246.563C246.563 106.283 251.799 100.518 258.366 100.518V102.518ZM248.563 113.17V138.542H246.563V113.17H248.563ZM248.563 138.542C248.563 144.47 253.044 149.194 258.366 149.194V151.194C251.799 151.194 246.563 145.429 246.563 138.542H248.563Z" fill="black" mask="url(#path-36-inside-3_301_500)"></path><mask id="path-38-inside-4_301_500" fill="white"><path d="M240.534 150.194H303.972C309.554 150.194 314.12 145.269 314.12 139.248V112.464C314.12 106.443 309.554 101.518 303.972 101.518H240.534C234.952 101.518 230.387 106.443 230.387 112.464V139.248C230.387 145.269 234.952 150.194 240.534 150.194Z"></path></mask><path d="M240.534 150.194H303.972C309.554 150.194 314.12 145.269 314.12 139.248V112.464C314.12 106.443 309.554 101.518 303.972 101.518H240.534C234.952 101.518 230.387 106.443 230.387 112.464V139.248C230.387 145.269 234.952 150.194 240.534 150.194Z" fill="#CCCCCC"></path><path d="M240.534 149.194H303.972V151.194H240.534V149.194ZM303.972 149.194C308.932 149.194 313.12 144.789 313.12 139.248H315.12C315.12 145.749 310.177 151.194 303.972 151.194V149.194ZM313.12 139.248V112.464H315.12V139.248H313.12ZM313.12 112.464C313.12 106.922 308.932 102.518 303.972 102.518V100.518C310.177 100.518 315.12 105.963 315.12 112.464H313.12ZM303.972 102.518H240.534V100.518H303.972V102.518ZM240.534 102.518C235.575 102.518 231.387 106.922 231.387 112.464H229.387C229.387 105.963 234.33 100.518 240.534 100.518V102.518ZM231.387 112.464V139.248H229.387V112.464H231.387ZM231.387 139.248C231.387 144.789 235.575 149.194 240.534 149.194V151.194C234.33 151.194 229.387 145.749 229.387 139.248H231.387Z" fill="black" mask="url(#path-38-inside-4_301_500)"></path><path d="M256.155 251.087H328.455C332.229 251.087 335.381 247.742 335.381 243.576V161.979C335.381 157.813 332.229 154.469 328.455 154.469H256.155C252.382 154.469 249.226 157.813 249.226 161.979V243.572C249.226 247.742 252.382 251.087 256.155 251.087Z" fill="#FCFCFC" stroke="black"></path><path d="M315.332 245.412V160.143C315.332 156.986 312.945 154.464 310.108 154.464H234.401C231.564 154.464 229.177 156.986 229.177 160.143V245.412C229.177 248.569 231.563 251.087 234.401 251.087H310.108C312.946 251.087 315.332 248.569 315.332 245.412Z" fill="#CCCCCC" stroke="black"></path><mask id="path-42-inside-5_301_500" fill="white"><path d="M212.947 251.844H258.904C262.75 251.844 265.891 248.451 265.891 244.307V235.533C265.891 231.384 262.75 227.996 258.908 227.996H212.947C209.105 227.996 205.96 231.384 205.96 235.533V244.307C205.96 248.456 209.105 251.844 212.947 251.844Z"></path></mask><path d="M212.947 251.844H258.904C262.75 251.844 265.891 248.451 265.891 244.307V235.533C265.891 231.384 262.75 227.996 258.908 227.996H212.947C209.105 227.996 205.96 231.384 205.96 235.533V244.307C205.96 248.456 209.105 251.844 212.947 251.844Z" fill="#ECECEC"></path><path d="M212.947 250.844H258.904V252.844H212.947V250.844ZM258.904 250.844C262.127 250.844 264.891 247.972 264.891 244.307H266.891C266.891 248.931 263.372 252.844 258.904 252.844V250.844ZM264.891 244.307V235.533H266.891V244.307H264.891ZM264.891 235.533C264.891 231.864 262.127 228.996 258.908 228.996V226.996C263.372 226.996 266.891 230.905 266.891 235.533H264.891ZM258.908 228.996H212.947V226.996H258.908V228.996ZM212.947 228.996C209.727 228.996 206.96 231.864 206.96 235.533H204.96C204.96 230.905 208.483 226.996 212.947 226.996V228.996ZM206.96 235.533V244.307H204.96V235.533H206.96ZM206.96 244.307C206.96 247.976 209.727 250.844 212.947 250.844V252.844C208.483 252.844 204.96 248.936 204.96 244.307H206.96Z" fill="black" mask="url(#path-42-inside-5_301_500)"></path><path d="M225.136 251.344H271.093C274.628 251.344 277.58 248.212 277.58 244.307V235.533C277.58 231.624 274.628 228.496 271.093 228.496H225.136C221.606 228.496 218.649 231.624 218.649 235.533V244.307C218.649 248.216 221.606 251.344 225.136 251.344Z" fill="white" stroke="black"></path><mask id="path-45-inside-6_301_500" fill="white"><path d="M242.91 251.844H288.867C292.713 251.844 295.854 248.451 295.854 244.307V235.533C295.854 231.384 292.713 227.996 288.871 227.996H242.91C239.068 227.996 235.923 231.384 235.923 235.533V244.307C235.923 248.456 239.068 251.844 242.91 251.844Z"></path></mask><path d="M242.91 251.844H288.867C292.713 251.844 295.854 248.451 295.854 244.307V235.533C295.854 231.384 292.713 227.996 288.871 227.996H242.91C239.068 227.996 235.923 231.384 235.923 235.533V244.307C235.923 248.456 239.068 251.844 242.91 251.844Z" fill="#ECECEC"></path><path d="M242.91 250.844H288.867V252.844H242.91V250.844ZM288.867 250.844C292.09 250.844 294.854 247.972 294.854 244.307H296.854C296.854 248.931 293.335 252.844 288.867 252.844V250.844ZM294.854 244.307V235.533H296.854V244.307H294.854ZM294.854 235.533C294.854 231.864 292.09 228.996 288.871 228.996V226.996C293.335 226.996 296.854 230.905 296.854 235.533H294.854ZM288.871 228.996H242.91V226.996H288.871V228.996ZM242.91 228.996C239.69 228.996 236.923 231.864 236.923 235.533H234.923C234.923 230.905 238.446 226.996 242.91 226.996V228.996ZM236.923 235.533V244.307H234.923V235.533H236.923ZM236.923 244.307C236.923 247.976 239.69 250.844 242.91 250.844V252.844C238.446 252.844 234.923 248.936 234.923 244.307H236.923Z" fill="black" mask="url(#path-45-inside-6_301_500)"></path><path d="M248.617 233.805V246.039C248.617 248.988 250.853 251.344 253.507 251.344H302.663C305.316 251.344 307.552 248.988 307.552 246.039V233.805C307.552 230.848 305.316 228.492 302.663 228.492H253.507C250.854 228.492 248.617 230.848 248.617 233.805Z" fill="white" stroke="black"></path><path d="M265.132 153.469H291.803V150.694H265.132V153.469Z" fill="#ECECEC" stroke="black"></path><path d="M287.763 153.469H302.766V150.694H287.763V153.469Z" fill="white" stroke="black"></path><mask id="path-50-inside-7_301_500" fill="white"><path d="M236.608 163.44L240.654 168.847C241.343 169.769 242.648 169.769 243.341 168.847L244.958 166.684L247.541 163.229C248.08 162.51 247.606 161.443 246.755 161.443H237.493C236.538 161.443 236.007 162.639 236.608 163.44Z"></path></mask><path d="M236.608 163.44L240.654 168.847C241.343 169.769 242.648 169.769 243.341 168.847L244.958 166.684L247.541 163.229C248.08 162.51 247.606 161.443 246.755 161.443H237.493C236.538 161.443 236.007 162.639 236.608 163.44Z" fill="white"></path><path d="M240.654 168.847L241.454 168.248L241.455 168.248L240.654 168.847ZM243.341 168.847L244.142 169.446L244.14 169.448L243.341 168.847ZM244.958 166.684L244.157 166.085L244.157 166.085L244.958 166.684ZM247.541 163.229L246.74 162.63L246.741 162.629L247.541 163.229ZM237.408 162.841L241.454 168.248L239.853 169.446L235.807 164.04L237.408 162.841ZM241.455 168.248C241.743 168.634 242.247 168.637 242.541 168.246L244.14 169.448C243.048 170.901 240.943 170.904 239.853 169.446L241.455 168.248ZM242.54 168.248L244.157 166.085L245.759 167.282L244.142 169.446L242.54 168.248ZM244.157 166.085L246.74 162.63L248.342 163.827L245.758 167.282L244.157 166.085ZM246.741 162.629C246.759 162.604 246.767 162.581 246.769 162.557C246.771 162.529 246.766 162.498 246.754 162.47C246.742 162.442 246.729 162.433 246.731 162.434C246.733 162.436 246.737 162.438 246.744 162.441C246.751 162.443 246.756 162.443 246.755 162.443V160.443C247.643 160.443 248.295 161.009 248.584 161.663C248.872 162.315 248.849 163.151 248.341 163.829L246.741 162.629ZM246.755 162.443H237.493V160.443H246.755V162.443ZM237.493 162.443C237.472 162.443 237.461 162.448 237.448 162.457C237.431 162.469 237.403 162.497 237.381 162.547C237.335 162.651 237.348 162.76 237.408 162.841L235.807 164.04C235.267 163.319 235.245 162.429 235.553 161.736C235.862 161.04 236.554 160.443 237.493 160.443V162.443Z" fill="black" mask="url(#path-50-inside-7_301_500)"></path><mask id="path-52-inside-8_301_500" fill="white"><path d="M320.802 175.354C320.802 175.354 320.802 175.35 320.798 175.342L320.244 173.577L320.128 173.224C318.5 168.108 320.598 162.498 325.036 159.973C328.193 158.183 332 155.738 335.873 152.577C345.058 145.095 351.437 136.391 354.921 126.607C356.865 121.143 362.085 117.891 367.44 118.867L368.064 118.983C370.354 119.407 372.221 120.864 373.342 122.824C374.462 124.772 374.831 127.218 374.15 129.614C365.931 158.296 342.906 173.618 330.842 179.885C326.907 181.928 322.211 179.81 320.802 175.354Z"></path></mask><path d="M320.802 175.354C320.802 175.354 320.802 175.35 320.798 175.342L320.244 173.577L320.128 173.224C318.5 168.108 320.598 162.498 325.036 159.973C328.193 158.183 332 155.738 335.873 152.577C345.058 145.095 351.437 136.391 354.921 126.607C356.865 121.143 362.085 117.891 367.44 118.867L368.064 118.983C370.354 119.407 372.221 120.864 373.342 122.824C374.462 124.772 374.831 127.218 374.15 129.614C365.931 158.296 342.906 173.618 330.842 179.885C326.907 181.928 322.211 179.81 320.802 175.354Z" fill="white"></path><path d="M320.798 175.342L319.891 175.762L319.863 175.703L319.844 175.641L320.798 175.342ZM320.244 173.577L321.194 173.266L321.198 173.277L320.244 173.577ZM320.128 173.224L319.178 173.535L319.175 173.527L320.128 173.224ZM325.036 159.973L324.542 159.104L324.543 159.103L325.036 159.973ZM335.873 152.577L335.241 151.803L335.242 151.802L335.873 152.577ZM354.921 126.607L355.863 126.943L355.863 126.943L354.921 126.607ZM367.44 118.867L367.619 117.883L367.623 117.884L367.44 118.867ZM368.064 118.983L367.882 119.967L367.881 119.966L368.064 118.983ZM373.342 122.824L372.475 123.323L372.473 123.321L373.342 122.824ZM374.15 129.614L375.112 129.887L375.111 129.889L374.15 129.614ZM330.842 179.885L331.303 180.772L331.303 180.772L330.842 179.885ZM320.802 175.354C319.802 175.351 319.802 175.351 319.802 175.352C319.802 175.352 319.802 175.352 319.802 175.352C319.802 175.353 319.802 175.354 319.802 175.354C319.802 175.355 319.802 175.357 319.802 175.358C319.802 175.36 319.802 175.363 319.802 175.365C319.802 175.37 319.802 175.375 319.802 175.38C319.802 175.389 319.803 175.399 319.803 175.409C319.804 175.428 319.806 175.447 319.808 175.466C319.812 175.503 319.819 175.54 319.827 175.575C319.843 175.645 319.866 175.708 319.891 175.762L321.705 174.921C321.734 174.984 321.759 175.053 321.776 175.127C321.785 175.164 321.791 175.202 321.796 175.241C321.798 175.261 321.799 175.28 321.8 175.299C321.801 175.309 321.801 175.319 321.802 175.329C321.802 175.334 321.802 175.338 321.802 175.343C321.802 175.346 321.802 175.348 321.802 175.351C321.802 175.352 321.802 175.353 321.802 175.354C321.802 175.355 321.802 175.355 321.802 175.356C321.802 175.356 321.802 175.357 321.802 175.357C321.802 175.357 321.802 175.358 320.802 175.354ZM319.844 175.641L319.29 173.877L321.198 173.277L321.752 175.042L319.844 175.641ZM319.293 173.888L319.178 173.535L321.079 172.913L321.194 173.266L319.293 173.888ZM319.175 173.527C317.413 167.989 319.668 161.877 324.542 159.104L325.531 160.842C321.528 163.119 319.587 168.227 321.081 172.921L319.175 173.527ZM324.543 159.103C327.661 157.335 331.42 154.92 335.241 151.803L336.505 153.352C332.581 156.555 328.725 159.031 325.53 160.843L324.543 159.103ZM335.242 151.802C344.305 144.418 350.565 135.86 353.979 126.272L355.863 126.943C352.31 136.921 345.812 145.771 336.505 153.353L335.242 151.802ZM353.979 126.272C356.069 120.397 361.731 116.81 367.619 117.883L367.261 119.851C362.44 118.972 357.661 121.889 355.863 126.943L353.979 126.272ZM367.623 117.884L368.247 118L367.881 119.966L367.257 119.85L367.623 117.884ZM368.246 118C370.855 118.483 372.959 120.14 374.21 122.328L372.473 123.321C371.484 121.589 369.854 120.331 367.882 119.967L368.246 118ZM374.208 122.326C375.46 124.502 375.869 127.226 375.112 129.887L373.188 129.34C373.794 127.21 373.464 125.042 372.475 123.323L374.208 122.326ZM375.111 129.889C366.78 158.964 343.459 174.458 331.303 180.772L330.381 178.997C342.354 172.778 365.082 157.627 373.189 129.338L375.111 129.889ZM331.303 180.772C326.761 183.131 321.425 180.641 319.848 175.656L321.755 175.053C322.997 178.978 327.054 180.725 330.381 178.997L331.303 180.772Z" fill="black" mask="url(#path-52-inside-8_301_500)"></path><path d="M366.263 93.9685C367.006 93.574 367.911 93.5657 368.689 94.0308C369.959 94.7865 370.421 96.5098 369.72 97.876C369.02 99.263 367.411 103.553 368.404 106.621C368.873 108.071 369.901 109.138 371.549 109.893C377.893 112.788 382.855 103.424 382.905 103.328C383.614 101.966 385.215 101.48 386.478 102.249C387.744 103.013 388.191 104.74 387.483 106.102C384.98 110.911 377.997 118.983 369.501 115.105C366.487 113.73 364.392 111.43 363.438 108.457C362.595 105.828 362.633 102.772 363.553 99.3668C364.192 96.9957 365.031 95.3222 365.124 95.1395C365.393 94.6121 365.798 94.2176 366.263 93.9685Z" fill="black"></path><path d="M370.688 111.5C371.115 111.343 371.6 111.347 372.051 111.55C373.024 111.99 373.479 113.199 373.071 114.245L369.887 122.413C369.479 123.46 368.359 123.954 367.389 123.514C366.415 123.069 365.96 121.865 366.368 120.815L369.552 112.651C369.772 112.09 370.195 111.687 370.688 111.5Z" fill="black"></path><path d="M290.24 133.519H257.644C257.718 133.655 257.807 133.809 257.912 133.976C258.347 134.674 259.057 135.611 260.15 136.552C262.327 138.425 266.059 140.342 272.254 140.342L290.24 133.519ZM290.24 133.519C290.154 133.644 290.053 133.784 289.936 133.935C289.397 134.631 288.516 135.573 287.163 136.519C284.463 138.409 279.851 140.34 272.254 140.342L290.24 133.519Z" fill="white" stroke="black"></path><path d="M237.828 111.548V127.611H308.997V111.548H237.828Z" fill="#8409F9" stroke="black"></path><path d="M253.412 119.955H251.765V118.182H253.412V119.955Z" fill="white"></path><path d="M251.319 117.659H249.675V115.882H251.319V117.659Z" fill="white"></path><path d="M251.319 115.528H249.675V113.751H251.319V115.528Z" fill="white"></path><path d="M251.32 119.955H249.676V118.182H251.32V119.955Z" fill="white"></path><path d="M249.238 119.955H247.591V118.182H249.238V119.955Z" fill="white"></path><path d="M249.238 122.276H247.591V120.503H249.238V122.276Z" fill="white"></path><path d="M247.08 119.955H245.433V118.182H247.08V119.955Z" fill="white"></path><path d="M253.412 122.276H251.765V120.503H253.412V122.276Z" fill="white"></path><path d="M255.506 119.955H253.858V118.182H255.506V119.955Z" fill="white"></path><path d="M253.412 117.659H251.765V115.882H253.412V117.659Z" fill="white"></path><path d="M249.238 117.659H247.591V115.882H249.238V117.659Z" fill="white"></path><path d="M251.32 122.276H249.676V120.503H251.32V122.276Z" fill="white"></path><path d="M251.32 124.614H249.676V122.841H251.32V124.614Z" fill="white"></path><path d="M295.318 119.955H293.674V118.182H295.318V119.955Z" fill="white"></path><path d="M293.236 119.955H291.589V118.182H293.236V119.955Z" fill="white"></path><path d="M293.236 122.276H291.589V120.503H293.236V122.276Z" fill="white"></path><path d="M291.078 119.955H289.431V118.182H291.078V119.955Z" fill="white"></path><path d="M297.414 119.955H295.767V118.182H297.414V119.955Z" fill="white"></path><path d="M297.414 122.276H295.767V120.503H297.414V122.276Z" fill="white"></path><path d="M299.5 119.955H297.856V118.182H299.5V119.955Z" fill="white"></path><path d="M295.318 117.659H293.674V115.882H295.318V117.659Z" fill="white"></path><path d="M295.318 115.529H293.674V113.751H295.318V115.529Z" fill="white"></path><path d="M297.414 117.659H295.767V115.882H297.414V117.659Z" fill="white"></path><path d="M293.236 117.659H291.589V115.882H293.236V117.659Z" fill="white"></path><path d="M295.318 122.276H293.674V120.503H295.318V122.276Z" fill="white"></path><path d="M295.318 124.614H293.674V122.841H295.318V124.614Z" fill="white"></path><path d="M250.187 100.824C249.852 100.824 249.579 100.529 249.579 100.168V81.6561C249.579 81.2948 249.852 81 250.187 81C250.522 81 250.799 81.2948 250.799 81.6561V100.168C250.799 100.529 250.522 100.824 250.187 100.824Z" fill="#0B0B36"></path><path d="M296.473 158.804C296.131 158.804 295.791 159.115 295.791 159.575C295.791 160.04 296.132 160.349 296.473 160.349C296.813 160.349 297.155 160.04 297.155 159.575C297.155 159.115 296.814 158.804 296.473 158.804Z" fill="white" stroke="black"></path><path d="M301.534 158.804C301.193 158.804 300.853 159.115 300.853 159.575C300.853 160.04 301.194 160.349 301.534 160.349C301.875 160.349 302.216 160.04 302.216 159.575C302.216 159.115 301.876 158.804 301.534 158.804Z" fill="white" stroke="black"></path><path d="M306.539 158.804C306.198 158.804 305.857 159.115 305.857 159.575C305.857 160.04 306.199 160.349 306.539 160.349C306.88 160.349 307.221 160.04 307.221 159.575C307.221 159.115 306.881 158.804 306.539 158.804Z" fill="white" stroke="black"></path><path d="M292.562 153.964L272.166 190.91L254.196 153.964H254.955L272.205 189.419L291.773 153.964H292.562Z" fill="black"></path><path d="M272.255 176.207C263.769 176.207 256.825 183.638 256.825 192.886C256.825 202.135 263.77 209.57 272.255 209.57C280.74 209.57 287.681 202.135 287.681 192.886C287.681 183.637 280.74 176.207 272.255 176.207Z" fill="#FBFBFB" stroke="black"></path><path d="M259.41 192.886C259.41 185.309 265.135 179.077 272.252 179.077C279.366 179.077 285.094 185.309 285.094 192.886C285.094 200.468 279.366 206.699 272.252 206.699C265.135 206.699 259.41 200.468 259.41 192.886ZM258.709 192.886C258.709 201.001 264.818 207.535 272.252 207.535C279.687 207.535 285.796 201.001 285.796 192.886C285.796 184.775 279.687 178.238 272.252 178.238C264.818 178.238 258.709 184.775 258.709 192.886Z" fill="#ECECEC" stroke="black"></path><path d="M267.883 201.644L267.879 200.581C270.628 200.423 270.812 200.103 270.801 198.035L270.755 187.621C270.747 186.151 270.266 186.039 269.172 185.902L268.372 185.76L268.368 184.814C270.42 184.544 272.71 183.954 274.281 183.344L274.35 198.015C274.358 200.145 274.519 200.402 277.241 200.531L277.245 201.598L267.883 201.644Z" fill="black"></path></svg> 